#tb 0: 1/25
#media_type 0: video
#codec_id 0: vp8
#dimensions 0: 352x288
#sar 0: 0/1
0,         -1,          0,        1,     5093, 0x8e931ffb
0,          0,          1,        1,     3610, 0xfce9ef6f
0,          1,          2,        1,     2278, 0xdddf6b45
0,          2,          3,        1,     2511, 0x0befe1d7
0,          3,          4,        1,     2472, 0x0b21be10
0,          4,          5,        1,     2399, 0x9beba14a
0,          5,          6,        1,     2582, 0x1630e200
0,          6,          7,        1,     2293, 0xc6eb5118
0,          7,          8,        1,     2675, 0x2a05317c
0,          8,          9,        1,     2210, 0x4c303e46
0,          9,         10,        1,     2506, 0x2ce8c3a7
0,         10,         11,        1,     2501, 0x30c4b135
0,         11,         12,        1,     9986, 0xc20ab028
0,         12,         13,        1,     3069, 0xcd8fca61
0,         13,         14,        1,     2044, 0xdbf4d7be
0,         14,         15,        1,     2607, 0x2cf8ea10
0,         15,         16,        1,     2421, 0x4cbbadcf
0,         16,         17,        1,     2924, 0x03af8948
0,         17,         18,        1,     2058, 0xc7ffe681
0,         18,         19,        1,     2858, 0xfebe63f4
0,         19,         20,        1,     2213, 0x9f453377
0,         20,         21,        1,     2983, 0xf6f0a54d
0,         21,         22,        1,     2260, 0x349a4adf
0,         22,         23,        1,     3186, 0x823304a7
0,         23,         24,        1,    12707, 0x82bd5dfe
0,         24,         25,        1,     2671, 0x9466099f
0,         25,         26,        1,     2121, 0x1b4ff570
0,         26,         27,        1,     2811, 0x92f658e5
0,         27,         28,        1,     2011, 0x1a1fcf0a
0,         28,         29,        1,     2522, 0x76a4af4a
0,         29,         30,        1,     2658, 0xbaf8fdbc
0,         30,         31,        1,     2262, 0x06de54f6
0,         31,         32,        1,     2884, 0x30338316
0,         32,         33,        1,     2037, 0xb0f2d4ce
0,         33,         34,        1,     2653, 0x5b1eec83
0,         34,         35,        1,     2283, 0x11e133fa
0,         35,         36,        1,    12926, 0x32619e35
0,         36,         37,        1,     3378, 0x0f2d589e
0,         37,         38,        1,     2075, 0xc33adb8e
0,         38,         39,        1,     2577, 0xc158c57f
0,         39,         40,        1,     2615, 0xeddecf84
0,         40,         41,        1,     2415, 0x2de67136
0,         41,         42,        1,     3065, 0x5ad5c17a
0,         42,         43,        1,     2113, 0x9af4f26a
0,         43,         44,        1,     2725, 0xd1d6fc51
0,         44,         45,        1,     2276, 0x8a993ba3
0,         45,         46,        1,     2887, 0x0aa95ea2
0,         46,         47,        1,     1978, 0x6e8990e8
0,         47,         48,        1,    13094, 0x5a5b2f52
0,         48,         49,        1,     2955, 0x7fde79ce
